<svg xmlns="http://www.w3.org/2000/svg" width="1280" height="400" viewBox="0 0 1280 400" role="img" aria-label="フレームのフィルム。描いたフレームが RAM・ディスク・GPU に保存され、再生ヘッドが進む">
  <title>YMM4 NVENC・描画キャッシュ</title>
  <defs>
    <linearGradient id="bg" x1="0" y1="0" x2="0" y2="1">
      <stop offset="0" stop-color="#0a0f1c"/><stop offset="1" stop-color="#020306"/>
    </linearGradient>
    <radialGradient id="glow" cx="640" cy="-20" r="560" gradientUnits="userSpaceOnUse">
      <stop offset="0" stop-color="#7fdfff" stop-opacity="0.75"/>
      <stop offset="0.25" stop-color="#2f81f7" stop-opacity="0.32"/>
      <stop offset="1" stop-color="#2f81f7" stop-opacity="0"/>
    </radialGradient>
    <linearGradient id="beam" x1="0" y1="0" x2="0" y2="1">
      <stop offset="0" stop-color="#bfefff" stop-opacity="0.9"/>
      <stop offset="1" stop-color="#bfefff" stop-opacity="0"/>
    </linearGradient>
    <linearGradient id="fade" x1="0" y1="0" x2="1" y2="0">
      <stop offset="0" stop-color="#020306" stop-opacity="1"/>
      <stop offset="0.05" stop-color="#020306" stop-opacity="0"/>
      <stop offset="0.95" stop-color="#020306" stop-opacity="0"/>
      <stop offset="1" stop-color="#020306" stop-opacity="1"/>
    </linearGradient>
    <filter id="soft" x="-50%" y="-50%" width="200%" height="200%"><feGaussianBlur stdDeviation="6"/></filter>
  </defs>
  <rect width="1280" height="400" fill="url(#bg)"/>
  <rect width="1280" height="400" fill="url(#glow)"/>
  <g stroke="#2f81f7" stroke-opacity="0.13" stroke-width="1"><path d="M640 150 L-690 400"/><path d="M640 150 L-595 400"/><path d="M640 150 L-500 400"/><path d="M640 150 L-405 400"/><path d="M640 150 L-310 400"/><path d="M640 150 L-215 400"/><path d="M640 150 L-120 400"/><path d="M640 150 L-25 400"/><path d="M640 150 L70 400"/><path d="M640 150 L165 400"/><path d="M640 150 L260 400"/><path d="M640 150 L355 400"/><path d="M640 150 L450 400"/><path d="M640 150 L545 400"/><path d="M640 150 L640 400"/><path d="M640 150 L735 400"/><path d="M640 150 L830 400"/><path d="M640 150 L925 400"/><path d="M640 150 L1020 400"/><path d="M640 150 L1115 400"/><path d="M640 150 L1210 400"/><path d="M640 150 L1305 400"/><path d="M640 150 L1400 400"/><path d="M640 150 L1495 400"/><path d="M640 150 L1590 400"/><path d="M640 150 L1685 400"/><path d="M640 150 L1780 400"/><path d="M640 150 L1875 400"/><path d="M640 150 L1970 400"/><path d="M0 153.1 H1280"/><path d="M0 162.3 H1280"/><path d="M0 177.8 H1280"/><path d="M0 199.4 H1280"/><path d="M0 227.2 H1280"/><path d="M0 261.1 H1280"/><path d="M0 301.2 H1280"/><path d="M0 347.5 H1280"/></g>
  <path d="M610 0 L670 0 L700 260 L580 260 Z" fill="url(#beam)" opacity="0.22"/>
  <rect x="70" y="186" width="1140" height="150" rx="10" fill="#0b0f16" stroke="#2b3240" stroke-width="2"/>
  <g fill="#1c2230"><rect x="84.0" y="195" width="14" height="10" rx="2.5"/><rect x="84.0" y="317" width="14" height="10" rx="2.5"/><rect x="113.6" y="195" width="14" height="10" rx="2.5"/><rect x="113.6" y="317" width="14" height="10" rx="2.5"/><rect x="143.2" y="195" width="14" height="10" rx="2.5"/><rect x="143.2" y="317" width="14" height="10" rx="2.5"/><rect x="172.8" y="195" width="14" height="10" rx="2.5"/><rect x="172.8" y="317" width="14" height="10" rx="2.5"/><rect x="202.4" y="195" width="14" height="10" rx="2.5"/><rect x="202.4" y="317" width="14" height="10" rx="2.5"/><rect x="232.0" y="195" width="14" height="10" rx="2.5"/><rect x="232.0" y="317" width="14" height="10" rx="2.5"/><rect x="261.6" y="195" width="14" height="10" rx="2.5"/><rect x="261.6" y="317" width="14" height="10" rx="2.5"/><rect x="291.2" y="195" width="14" height="10" rx="2.5"/><rect x="291.2" y="317" width="14" height="10" rx="2.5"/><rect x="320.8" y="195" width="14" height="10" rx="2.5"/><rect x="320.8" y="317" width="14" height="10" rx="2.5"/><rect x="350.4" y="195" width="14" height="10" rx="2.5"/><rect x="350.4" y="317" width="14" height="10" rx="2.5"/><rect x="380.0" y="195" width="14" height="10" rx="2.5"/><rect x="380.0" y="317" width="14" height="10" rx="2.5"/><rect x="409.6" y="195" width="14" height="10" rx="2.5"/><rect x="409.6" y="317" width="14" height="10" rx="2.5"/><rect x="439.2" y="195" width="14" height="10" rx="2.5"/><rect x="439.2" y="317" width="14" height="10" rx="2.5"/><rect x="468.8" y="195" width="14" height="10" rx="2.5"/><rect x="468.8" y="317" width="14" height="10" rx="2.5"/><rect x="498.4" y="195" width="14" height="10" rx="2.5"/><rect x="498.4" y="317" width="14" height="10" rx="2.5"/><rect x="528.0" y="195" width="14" height="10" rx="2.5"/><rect x="528.0" y="317" width="14" height="10" rx="2.5"/><rect x="557.6" y="195" width="14" height="10" rx="2.5"/><rect x="557.6" y="317" width="14" height="10" rx="2.5"/><rect x="587.2" y="195" width="14" height="10" rx="2.5"/><rect x="587.2" y="317" width="14" height="10" rx="2.5"/><rect x="616.8" y="195" width="14" height="10" rx="2.5"/><rect x="616.8" y="317" width="14" height="10" rx="2.5"/><rect x="646.4" y="195" width="14" height="10" rx="2.5"/><rect x="646.4" y="317" width="14" height="10" rx="2.5"/><rect x="676.0" y="195" width="14" height="10" rx="2.5"/><rect x="676.0" y="317" width="14" height="10" rx="2.5"/><rect x="705.6" y="195" width="14" height="10" rx="2.5"/><rect x="705.6" y="317" width="14" height="10" rx="2.5"/><rect x="735.2" y="195" width="14" height="10" rx="2.5"/><rect x="735.2" y="317" width="14" height="10" rx="2.5"/><rect x="764.8" y="195" width="14" height="10" rx="2.5"/><rect x="764.8" y="317" width="14" height="10" rx="2.5"/><rect x="794.4" y="195" width="14" height="10" rx="2.5"/><rect x="794.4" y="317" width="14" height="10" rx="2.5"/><rect x="824.0" y="195" width="14" height="10" rx="2.5"/><rect x="824.0" y="317" width="14" height="10" rx="2.5"/><rect x="853.6" y="195" width="14" height="10" rx="2.5"/><rect x="853.6" y="317" width="14" height="10" rx="2.5"/><rect x="883.2" y="195" width="14" height="10" rx="2.5"/><rect x="883.2" y="317" width="14" height="10" rx="2.5"/><rect x="912.8" y="195" width="14" height="10" rx="2.5"/><rect x="912.8" y="317" width="14" height="10" rx="2.5"/><rect x="942.4" y="195" width="14" height="10" rx="2.5"/><rect x="942.4" y="317" width="14" height="10" rx="2.5"/><rect x="972.0" y="195" width="14" height="10" rx="2.5"/><rect x="972.0" y="317" width="14" height="10" rx="2.5"/><rect x="1001.6" y="195" width="14" height="10" rx="2.5"/><rect x="1001.6" y="317" width="14" height="10" rx="2.5"/><rect x="1031.2" y="195" width="14" height="10" rx="2.5"/><rect x="1031.2" y="317" width="14" height="10" rx="2.5"/><rect x="1060.8" y="195" width="14" height="10" rx="2.5"/><rect x="1060.8" y="317" width="14" height="10" rx="2.5"/><rect x="1090.4" y="195" width="14" height="10" rx="2.5"/><rect x="1090.4" y="317" width="14" height="10" rx="2.5"/><rect x="1120.0" y="195" width="14" height="10" rx="2.5"/><rect x="1120.0" y="317" width="14" height="10" rx="2.5"/><rect x="1149.6" y="195" width="14" height="10" rx="2.5"/><rect x="1149.6" y="317" width="14" height="10" rx="2.5"/><rect x="1179.2" y="195" width="14" height="10" rx="2.5"/><rect x="1179.2" y="317" width="14" height="10" rx="2.5"/></g>
  <rect x="84.0" y="216" width="83.5" height="90" rx="6" fill="#2dd4bf" fill-opacity="0.28" stroke="#5eead4" stroke-width="2"/><circle cx="98.0" cy="292.0" r="8" fill="#e6edf3"/><rect x="177.5" y="216" width="83.5" height="90" rx="6" fill="#2dd4bf" fill-opacity="0.28" stroke="#5eead4" stroke-width="2"/><circle cx="196.5" cy="276.2" r="8" fill="#e6edf3"/><rect x="271.0" y="216" width="83.5" height="90" rx="6" fill="#2ea043" fill-opacity="0.28" stroke="#56d364" stroke-width="2"/><circle cx="295.1" cy="261.7" r="8" fill="#e6edf3"/><rect x="364.5" y="216" width="83.5" height="90" rx="6" fill="#2ea043" fill-opacity="0.28" stroke="#56d364" stroke-width="2"/><circle cx="393.6" cy="249.7" r="8" fill="#e6edf3"/><rect x="458.0" y="216" width="83.5" height="90" rx="6" fill="#2ea043" fill-opacity="0.28" stroke="#56d364" stroke-width="2"/><circle cx="492.2" cy="241.1" r="8" fill="#e6edf3"/><rect x="551.5" y="216" width="83.5" height="90" rx="6" fill="#2ea043" fill-opacity="0.28" stroke="#56d364" stroke-width="2"/><circle cx="590.7" cy="236.6" r="8" fill="#e6edf3"/><rect x="645.0" y="216" width="83.5" height="90" rx="6" fill="#1f6feb" fill-opacity="0.28" stroke="#58a6ff" stroke-width="2"/><circle cx="689.3" cy="236.6" r="8" fill="#e6edf3"/><rect x="738.5" y="216" width="83.5" height="90" rx="6" fill="#1f6feb" fill-opacity="0.28" stroke="#58a6ff" stroke-width="2"/><circle cx="787.8" cy="241.1" r="8" fill="#e6edf3"/><rect x="832.0" y="216" width="83.5" height="90" rx="6" fill="#d29922" fill-opacity="0.28" stroke="#f2cc60" stroke-width="2"/><circle cx="886.4" cy="249.7" r="8" fill="#e6edf3"/><rect x="925.5" y="216" width="83.5" height="90" rx="6" fill="#161b22" fill-opacity="1" stroke="#30363d" stroke-width="2"/><circle cx="984.9" cy="261.7" r="8" fill="#3d4450"/><rect x="1019.0" y="216" width="83.5" height="90" rx="6" fill="#161b22" fill-opacity="1" stroke="#30363d" stroke-width="2"/><circle cx="1083.5" cy="276.2" r="8" fill="#3d4450"/><rect x="1112.5" y="216" width="83.5" height="90" rx="6" fill="#161b22" fill-opacity="1" stroke="#30363d" stroke-width="2"/><circle cx="1182.0" cy="292.0" r="8" fill="#3d4450"/>
  <rect x="84" y="358" width="1112" height="8" rx="4" fill="#1c2230"/><rect x="84.0" y="358" width="177.0" height="8" rx="4" fill="#5eead4"/><rect x="271.0" y="358" width="364.0" height="8" rx="4" fill="#56d364"/><rect x="645.0" y="358" width="177.0" height="8" rx="4" fill="#58a6ff"/><rect x="832.0" y="358" width="83.5" height="8" rx="4" fill="#f2cc60"/>
  <g><path d="M873.8 160 V384" stroke="#f2cc60" stroke-width="8" opacity="0.35" filter="url(#soft)"/><path d="M873.8 160 V384" stroke="#f2cc60" stroke-width="2.5"/><path d="M862.8 148 H884.8 L873.8 164 Z" fill="#f2cc60"/></g>
  <rect width="1280" height="400" fill="url(#fade)"/>
</svg>
